<svg width="345" height="100" viewBox="0 0 345 100" fill="none" xmlns="http://www.w3.org/2000/svg">
<path d="M332.423 51.984L328.655 41.328C328.431 40.768 328.191 40.112 327.935 39.36C327.695 38.608 327.463 37.792 327.239 36.912C327.015 37.808 326.775 38.64 326.519 39.408C326.279 40.16 326.047 40.816 325.823 41.376L322.079 51.984H332.423ZM344.519 65.208H338.927C338.303 65.208 337.791 65.064 337.391 64.776C337.007 64.472 336.719 64.088 336.527 63.624L334.175 56.976H320.303L317.951 63.624C317.791 64.024 317.511 64.392 317.111 64.728C316.711 65.048 316.207 65.208 315.599 65.208H309.959L323.567 30.384H330.935L344.519 65.208Z" fill="white"/>
<path d="M297.24 40.08C299.096 40.08 300.784 40.376 302.304 40.968C303.824 41.56 305.128 42.408 306.216 43.512C307.304 44.6 308.144 45.928 308.736 47.496C309.328 49.064 309.624 50.832 309.624 52.8C309.624 54.768 309.328 56.544 308.736 58.128C308.144 59.696 307.304 61.032 306.216 62.136C305.128 63.24 303.824 64.088 302.304 64.68C300.784 65.272 299.096 65.568 297.24 65.568C295.368 65.568 293.664 65.272 292.128 64.68C290.608 64.088 289.304 63.24 288.216 62.136C287.128 61.032 286.28 59.696 285.672 58.128C285.08 56.544 284.784 54.768 284.784 52.8C284.784 50.832 285.08 49.064 285.672 47.496C286.28 45.928 287.128 44.6 288.216 43.512C289.304 42.408 290.608 41.56 292.128 40.968C293.664 40.376 295.368 40.08 297.24 40.08ZM297.24 60.6C299.128 60.6 300.528 59.952 301.44 58.656C302.352 57.344 302.808 55.4 302.808 52.824C302.808 50.264 302.352 48.336 301.44 47.04C300.528 45.728 299.128 45.072 297.24 45.072C295.304 45.072 293.88 45.728 292.968 47.04C292.056 48.336 291.6 50.264 291.6 52.824C291.6 55.4 292.056 57.344 292.968 58.656C293.88 59.952 295.304 60.6 297.24 60.6Z" fill="white"/>
<path d="M266.279 59.448C267.447 59.448 268.495 59.256 269.423 58.872C270.351 58.472 271.135 57.912 271.775 57.192C272.415 56.472 272.903 55.6 273.239 54.576C273.575 53.552 273.743 52.4 273.743 51.12V30.384H280.943V51.12C280.943 53.232 280.599 55.176 279.911 56.952C279.239 58.712 278.271 60.232 277.007 61.512C275.743 62.792 274.207 63.792 272.399 64.512C270.591 65.232 268.551 65.592 266.279 65.592C264.007 65.592 261.959 65.232 260.135 64.512C258.327 63.792 256.791 62.792 255.527 61.512C254.263 60.232 253.287 58.712 252.599 56.952C251.927 55.176 251.591 53.232 251.591 51.12V30.384H258.791V51.12C258.791 52.4 258.959 53.552 259.295 54.576C259.631 55.6 260.119 56.472 260.759 57.192C261.399 57.912 262.183 58.472 263.111 58.872C264.039 59.256 265.095 59.448 266.279 59.448Z" fill="white"/>
<path d="M232.213 46.104C231.989 46.072 231.757 46.048 231.517 46.032C231.293 46.016 231.061 46.008 230.821 46.008C229.909 46.008 229.053 46.216 228.253 46.632C227.453 47.032 226.749 47.584 226.141 48.288C225.549 48.976 225.077 49.776 224.725 50.688C224.389 51.6 224.221 52.56 224.221 53.568C224.221 54.56 224.421 55.32 224.821 55.848C225.221 56.36 225.805 56.616 226.573 56.616C226.957 56.616 227.341 56.56 227.725 56.448C228.109 56.32 228.477 56.112 228.829 55.824C229.181 55.52 229.493 55.128 229.765 54.648C230.053 54.152 230.293 53.528 230.485 52.776L232.213 46.104ZM235.573 52.08C235.349 53.024 235.229 53.808 235.213 54.432C235.213 55.04 235.301 55.52 235.477 55.872C235.653 56.224 235.901 56.472 236.221 56.616C236.557 56.744 236.941 56.808 237.373 56.808C237.997 56.808 238.589 56.6 239.149 56.184C239.709 55.768 240.197 55.192 240.613 54.456C241.029 53.704 241.357 52.824 241.597 51.816C241.837 50.792 241.957 49.68 241.957 48.48C241.957 46.448 241.645 44.656 241.021 43.104C240.397 41.536 239.517 40.232 238.381 39.192C237.261 38.152 235.909 37.368 234.325 36.84C232.741 36.296 230.997 36.024 229.093 36.024C227.701 36.024 226.373 36.2 225.109 36.552C223.861 36.904 222.701 37.408 221.629 38.064C220.557 38.704 219.589 39.48 218.725 40.392C217.861 41.304 217.125 42.32 216.517 43.44C215.909 44.56 215.437 45.768 215.101 47.064C214.781 48.344 214.621 49.688 214.621 51.096C214.621 53.688 215.021 55.968 215.821 57.936C216.621 59.904 217.717 61.544 219.109 62.856C220.517 64.168 222.173 65.152 224.077 65.808C225.981 66.48 228.045 66.816 230.269 66.816C231.517 66.816 232.669 66.744 233.725 66.6C234.797 66.472 235.773 66.296 236.653 66.072C237.549 65.848 238.349 65.592 239.053 65.304C239.757 65.016 240.373 64.72 240.901 64.416C241.365 64.16 241.765 64.088 242.101 64.2C242.453 64.296 242.709 64.552 242.869 64.968L243.781 67.296C242.133 68.384 240.189 69.272 237.949 69.96C235.725 70.648 233.165 70.992 230.269 70.992C227.325 70.992 224.605 70.528 222.109 69.6C219.613 68.688 217.453 67.368 215.629 65.64C213.821 63.928 212.405 61.848 211.381 59.4C210.357 56.936 209.845 54.168 209.845 51.096C209.845 49.4 210.069 47.744 210.517 46.128C210.965 44.512 211.597 42.992 212.413 41.568C213.229 40.144 214.213 38.84 215.365 37.656C216.533 36.456 217.829 35.432 219.253 34.584C220.677 33.72 222.213 33.048 223.861 32.568C225.525 32.088 227.269 31.848 229.093 31.848C230.613 31.848 232.101 32.024 233.557 32.376C235.029 32.712 236.413 33.216 237.709 33.888C239.021 34.544 240.221 35.36 241.309 36.336C242.413 37.296 243.357 38.392 244.141 39.624C244.941 40.856 245.557 42.216 245.989 43.704C246.437 45.176 246.661 46.768 246.661 48.48C246.661 50.192 246.405 51.8 245.893 53.304C245.381 54.792 244.669 56.096 243.757 57.216C242.845 58.336 241.757 59.216 240.493 59.856C239.245 60.496 237.877 60.816 236.389 60.816C235.333 60.816 234.373 60.576 233.509 60.096C232.645 59.616 232.021 58.824 231.637 57.72C230.693 58.824 229.693 59.616 228.637 60.096C227.597 60.56 226.469 60.792 225.253 60.792C224.229 60.792 223.333 60.616 222.565 60.264C221.813 59.912 221.181 59.424 220.669 58.8C220.157 58.16 219.773 57.408 219.517 56.544C219.261 55.68 219.133 54.744 219.133 53.736C219.133 52.824 219.245 51.904 219.469 50.976C219.709 50.032 220.061 49.128 220.525 48.264C220.989 47.384 221.573 46.56 222.277 45.792C222.981 45.024 223.805 44.36 224.749 43.8C225.693 43.224 226.757 42.776 227.941 42.456C229.141 42.12 230.469 41.952 231.925 41.952C232.581 41.952 233.181 41.976 233.725 42.024C234.269 42.072 234.781 42.144 235.261 42.24C235.741 42.336 236.189 42.456 236.605 42.6C237.037 42.744 237.469 42.904 237.901 43.08L235.573 52.08Z" fill="white"/>
<path d="M193.592 47.472H205.544V61.848C203.768 63.144 201.872 64.096 199.856 64.704C197.856 65.296 195.736 65.592 193.496 65.592C190.632 65.592 188.04 65.152 185.72 64.272C183.4 63.376 181.416 62.136 179.768 60.552C178.12 58.968 176.848 57.088 175.952 54.912C175.056 52.736 174.608 50.36 174.608 47.784C174.608 45.176 175.032 42.784 175.88 40.608C176.744 38.432 177.968 36.56 179.552 34.992C181.136 33.424 183.048 32.2 185.288 31.32C187.544 30.44 190.064 30 192.848 30C194.288 30 195.632 30.12 196.88 30.36C198.128 30.584 199.28 30.904 200.336 31.32C201.392 31.72 202.36 32.2 203.24 32.76C204.12 33.32 204.92 33.936 205.64 34.608L203.552 37.824C203.232 38.336 202.816 38.648 202.304 38.76C201.792 38.872 201.232 38.744 200.624 38.376C200.048 38.024 199.48 37.712 198.92 37.44C198.376 37.152 197.792 36.904 197.168 36.696C196.544 36.488 195.864 36.328 195.128 36.216C194.392 36.104 193.544 36.048 192.584 36.048C190.968 36.048 189.504 36.328 188.192 36.888C186.88 37.448 185.76 38.24 184.832 39.264C183.92 40.288 183.216 41.52 182.72 42.96C182.224 44.4 181.976 46.008 181.976 47.784C181.976 49.704 182.248 51.424 182.792 52.944C183.336 54.448 184.104 55.72 185.096 56.76C186.088 57.8 187.272 58.592 188.648 59.136C190.04 59.68 191.584 59.952 193.28 59.952C194.432 59.952 195.456 59.84 196.352 59.616C197.264 59.376 198.152 59.056 199.016 58.656V52.8H195.08C194.616 52.8 194.248 52.68 193.976 52.44C193.72 52.184 193.592 51.864 193.592 51.48V47.472Z" fill="white"/>
<path d="M155.138 59.448C156.306 59.448 157.354 59.256 158.282 58.872C159.21 58.472 159.994 57.912 160.634 57.192C161.274 56.472 161.762 55.6 162.098 54.576C162.434 53.552 162.602 52.4 162.602 51.12V30.384H169.802V51.12C169.802 53.232 169.458 55.176 168.77 56.952C168.098 58.712 167.13 60.232 165.866 61.512C164.602 62.792 163.066 63.792 161.258 64.512C159.45 65.232 157.41 65.592 155.138 65.592C152.866 65.592 150.818 65.232 148.994 64.512C147.186 63.792 145.65 62.792 144.386 61.512C143.122 60.232 142.146 58.712 141.458 56.952C140.786 55.176 140.45 53.232 140.45 51.12V30.384H147.65V51.12C147.65 52.4 147.818 53.552 148.154 54.576C148.49 55.6 148.978 56.472 149.618 57.192C150.258 57.912 151.042 58.472 151.97 58.872C152.898 59.256 153.954 59.448 155.138 59.448Z" fill="white"/>
<path d="M137.312 59.352V65.208H116.648V30.384H123.848V59.352H137.312Z" fill="white"/>
<path d="M97.8142 50C97.8142 76.4071 76.4071 97.8142 50 97.8142C23.5929 97.8142 2.18579 76.4071 2.18579 50C2.18579 23.5929 23.5929 2.18579 50 2.18579C76.4071 2.18579 97.8142 23.5929 97.8142 50Z" fill="#E6E6E6"/>
<path d="M97.8142 50C97.8142 23.5929 76.4071 2.18579 50 2.18579C23.5929 2.18579 2.18579 23.5929 2.18579 50C2.18579 76.4071 23.5929 97.8142 50 97.8142C76.4071 97.8142 97.8142 76.4071 97.8142 50ZM100 50C100 77.6142 77.6142 100 50 100C22.3858 100 0 77.6142 0 50C0 22.3858 22.3858 0 50 0C77.6142 0 100 22.3858 100 50Z" fill="black"/>
<path d="M93.7127 69.3989C86.2726 86.1397 69.4992 97.8142 49.9984 97.8142C30.4976 97.8142 13.7243 86.1397 6.28418 69.3989H93.7127Z" fill="#40CDAA"/>
<path d="M87.7049 33.7431L88.7978 36.612V48.7705L87.2951 52.459V81.1475L85.6558 82.377L85.929 52.459L84.5629 48.7705L84.8361 36.612L85.7924 33.7431L86.7487 30.7377L87.7049 33.7431Z" fill="white"/>
<path d="M86.7486 36.4754C89.2474 36.5039 91.8033 37.1585 92.8962 38.2514L91.8033 39.2077V39.7541L90.0273 40.847L89.8907 41.9399V43.1694L89.6175 41.9071V40.5554C88.3545 39.8868 85.5951 39.8531 83.8798 40.4542V41.8849L83.6066 43.1694L83.3333 41.9399L83.0601 40.847L81.4208 39.7541V39.2077L80.3279 38.2514C82.5137 36.7487 84.1472 36.4458 86.7486 36.4754ZM83.367 39.4758C83.2583 39.4894 83.1485 39.5034 83.0374 39.5182L83.1089 39.566L83.367 39.4758ZM89.9107 39.4833C89.9582 39.5046 90.0048 39.5267 90.0505 39.5495L90.1149 39.5097C90.0463 39.5007 89.9783 39.4918 89.9107 39.4833ZM90.9625 38.4912C87.8292 38.0173 85.4884 37.8968 82.2092 38.4454L82.2933 38.519C85.4743 38.0524 87.6509 38.0404 90.93 38.5195L90.9625 38.4912Z" fill="black"/>
<path d="M85.9525 40.7104L84.186 40.9432C84.0238 40.9646 83.8798 40.8383 83.8798 40.6747C83.8798 40.5388 83.9805 40.4239 84.1152 40.4061L85.9525 40.1639H87.5918L89.3829 40.4055C89.5172 40.4236 89.6175 40.5383 89.6175 40.6739C89.6175 40.8378 89.473 40.9641 89.3105 40.9422L87.5918 40.7104H85.9525Z" fill="#40CDAA"/>
<path d="M85.9525 44.5356L83.8798 44.8088V41.2569L85.9525 40.9836H87.5918L89.6175 41.2569V44.8088L87.5918 44.5356H85.9525Z" fill="black"/>
<path d="M83.7005 37.7547L81.9892 38.025C81.7617 38.0609 81.678 38.3449 81.8496 38.4985L83.5609 40.0296C83.737 40.1871 84.0164 40.0622 84.0164 39.826V38.0246C84.0164 37.8567 83.8664 37.7286 83.7005 37.7547Z" fill="black"/>
<path d="M91.4335 38.2754L89.8762 37.9293C89.6871 37.8873 89.5156 38.0499 89.5474 38.241L89.807 39.7983C89.8428 40.0133 90.1036 40.1018 90.2629 39.9531L91.5606 38.7419C91.7214 38.5919 91.6481 38.3231 91.4335 38.2754Z" fill="black"/>
<path d="M86.9907 33.6066C88.3419 33.6066 89.2811 33.7471 89.8953 33.895C90.2023 33.9689 90.428 34.0445 90.5829 34.1053C90.6603 34.1356 90.72 34.1622 90.7633 34.1829C90.7848 34.1932 90.8023 34.2022 90.8158 34.2093C90.8226 34.2129 90.8286 34.216 90.8334 34.2187C90.8358 34.2199 90.8379 34.2211 90.8398 34.2221C90.8408 34.2227 90.8417 34.2232 90.8425 34.2237C90.8429 34.224 90.8434 34.224 90.8438 34.2243L90.8444 34.2248C90.8439 34.2262 90.8314 34.2488 90.597 34.6589L90.8449 34.2251C91.1069 34.3748 91.1979 34.7085 91.0482 34.9706C90.8985 35.2325 90.565 35.3236 90.303 35.1741L90.3038 35.1744C90.3041 35.1746 90.3043 35.1748 90.3046 35.1749C90.3052 35.1753 90.306 35.1757 90.3065 35.176C90.3036 35.1746 90.2988 35.1723 90.292 35.1691C90.2728 35.1599 90.2372 35.1438 90.184 35.1229C90.0775 35.0812 89.8997 35.0202 89.6394 34.9575C89.1187 34.8321 88.2662 34.6995 86.9907 34.6995C85.7155 34.6995 84.7344 34.8322 84.0786 34.9623C83.7506 35.0274 83.5037 35.0917 83.3422 35.1386C83.2615 35.1621 83.2021 35.1815 83.1645 35.1941C83.1457 35.2004 83.1323 35.2049 83.1245 35.2078C83.1205 35.2092 83.1179 35.2103 83.1167 35.2107C83.1162 35.2109 83.1159 35.211 83.1159 35.211L83.1164 35.2107H83.1167V35.2104C82.8347 35.3171 82.5195 35.1752 82.4126 34.8932C82.3056 34.611 82.4477 34.2955 82.7298 34.1885L82.8958 34.6264C82.7393 34.2137 82.7305 34.1899 82.7301 34.1885L82.7304 34.1882C82.7306 34.1881 82.7309 34.1881 82.7312 34.188C82.7317 34.1878 82.7325 34.1875 82.7333 34.1872C82.7348 34.1866 82.7367 34.1858 82.7389 34.185C82.7433 34.1834 82.7491 34.1814 82.7562 34.1789C82.7708 34.1737 82.7911 34.1664 82.8168 34.1578C82.8682 34.1406 82.9417 34.1172 83.0369 34.0895C83.2276 34.034 83.5052 33.9617 83.8657 33.8902C84.5868 33.7471 85.6393 33.6066 86.9907 33.6066ZM90.3091 35.1773H90.3086L90.3065 35.176C90.3077 35.1766 90.3086 35.1771 90.3091 35.1773Z" fill="black"/>
<path d="M50.1367 97.8143C29.5082 97.8143 18.7159 86.2022 18.7159 86.2022C20.591 81.6849 21.8384 79.7086 24.8634 76.6394C27.6707 73.7812 28.7119 71.9919 30.3279 68.7159C30.8576 66.3888 30.8849 64.5777 30.3279 62.9782C28.9454 59.9936 28.6629 58.3179 28.4154 55.3279V50.8197C29.0828 46.2048 29.7757 43.9127 31.9673 40.7104L29.3716 39.2077L30.0547 32.1039L18.3061 27.5957V32.7869L19.6722 38.6613L21.1749 46.0383C21.0409 47.0264 20.5312 46.6993 18.9693 47.3146H15.6906C14.2856 46.8075 13.8517 47.1341 13.6613 46.0383L15.3006 38.6613L16.2569 32.7869V27.3225L14.4809 26.5028V24.8634L51.776 12.5684L81.9673 23.7705V27.5957L70.7651 32.1039L71.3115 39.3443L69.1257 40.4372C70.6685 42.2634 71.3694 43.8987 72.1312 48.6339C72.3352 51.7504 72.239 53.4864 71.5847 56.5574C73.3703 57.2754 74.1093 58.0482 75.1367 59.8361C74.6342 63.5157 73.3522 65.1801 68.0328 66.9399C68.0123 68.1712 67.9194 68.8075 68.1694 70.2186C68.4262 71.1453 68.6282 71.6581 69.2623 72.541C71.3598 75.4281 73.3607 77.0492 75 79.235C76.6394 81.4208 78.1018 83.4927 79.3716 87.705C79.3716 87.705 70.7651 97.8143 50.1367 97.8143Z" fill="black"/>
<path d="M43.4427 67.7595C50.6832 72.9508 57.2407 74.4535 64.2635 70.0819C64.2635 70.0819 63.9345 71.1748 64.6176 74.4535C65.2877 77.6698 69.3602 84.1664 71.3353 92.8014C65.3072 95.8121 58.5541 97.5862 51.4079 97.7928C47.6809 97.8317 43.9292 97.5054 40.3311 96.8357C38.5985 96.4799 36.9002 96.0303 35.2415 95.4926C34.9859 86.8869 40.8242 79.353 41.94 75.8196C43.0617 72.2677 43.4427 67.7595 43.4427 67.7595ZM29.0985 86.612C29.098 86.6142 28.3398 90.5381 28.2788 92.4863V92.6066C28.0534 92.4915 27.8292 92.3744 27.6059 92.2558C27.7858 89.8185 29.0973 86.6148 29.0985 86.612ZM69.9455 82.9235C71.5467 85.4691 72.8583 86.2822 74.3125 91.1799C73.9263 91.4085 73.5364 91.6313 73.1433 91.8491C72.5277 88.2222 71.4503 86.5905 69.9455 82.9235ZM66.6668 70.2185C67.1441 73.4503 69.2624 75.8196 73.3608 80.6011C77.4031 85.3171 76.9419 84.7208 78.1681 88.6398C77.7618 88.9365 77.3502 89.2264 76.9343 89.5104C75.7382 85.6288 74.5595 84.2662 72.1313 80.8743C66.8914 76.1243 66.31 73.9078 66.6668 70.2185ZM40.1641 36.0655L37.8416 37.7049C37.8402 37.7068 36.7908 39.11 36.0657 40.0273C35.0556 41.3049 34.6232 42.13 33.8799 43.5792C33.2692 44.7697 32.9596 45.4597 32.5138 46.7213C32.1256 47.8199 32.0289 48.4741 31.6941 49.5901C31.2843 50.9562 31.5575 53.5519 31.5575 54.918C31.5575 56.2841 32.787 60.5191 33.0602 61.8852C33.3334 63.2513 33.4701 66.3934 33.1968 68.1694C32.9236 69.9453 32.6038 70.6414 31.9673 72.1311C31.1731 73.9899 28.0967 77.2818 25.5466 80.3278C23.4647 83.1424 22.6265 84.8144 21.5245 88.4128C21.1973 88.1698 20.8732 87.9231 20.5525 87.6721C21.8084 84.1358 22.6059 82.6649 24.7269 79.7814C27.4922 77.0511 30.328 73.224 31.011 71.8579C31.6941 70.4918 31.8509 69.6503 32.1039 68.1694C32.414 66.3543 32.0873 62.9926 31.9919 62.1048C31.976 61.9572 31.9433 61.8139 31.8972 61.6728C30.9909 58.9015 30.6012 56.6499 30.6012 54.918C30.6012 53.142 30.4646 50.5464 30.6012 49.5901C30.7378 48.6338 31.4209 46.5847 31.4209 46.5847L32.787 43.5792C32.7874 43.5782 33.9319 40.8938 35.1094 39.4808C35.9067 38.524 36.3336 37.8133 37.2952 37.0218C38.2098 36.269 38.2515 36.2021 39.8908 35.5191C41.5284 34.8367 42.7571 34.836 42.7597 34.836L40.1641 36.0655ZM48.9072 43.7158C56.011 43.7158 57.1039 57.1038 57.1039 57.1038L52.0493 58.4699L45.6285 60.3825C42.449 57.959 41.9784 56.3088 41.5302 53.2786V51.0929C42.7565 45.7546 44.1317 44.4277 47.2679 43.7158H48.9072ZM65.8471 45.3551C68.716 45.3552 69.5356 48.0874 69.6722 50C69.8089 51.9125 69.9952 53.6369 69.1258 56.0109C68.1695 55.601 67.6231 55.601 66.94 55.4644L67.0766 50C66.7377 49.0361 66.1203 48.0874 65.1641 48.0874C64.2078 48.0874 63.3881 49.3169 63.2515 50C63.1149 50.683 63.1149 55.4644 63.1149 55.4644H61.7487C61.6851 53.893 61.6121 51.7759 61.8854 50C62.1586 48.224 62.9783 45.3551 65.8471 45.3551ZM53.2788 33.0601C58.3334 33.0601 62.705 32.7868 69.2624 43.7158C67.0541 41.157 66.0908 40.7097 64.481 40.3005C59.8018 34.7529 58.6461 34.5432 53.2788 33.0601ZM67.8963 26.0929L69.8089 38.2513L66.94 36.7486L64.6176 35.2459L68.3061 36.612L66.1203 26.3661L60.3826 23.224L67.8963 26.0929ZM34.1531 26.5027L32.5138 36.7486L37.8416 34.5628L31.1477 38.1147L32.3772 25.9562L40.0274 23.4972L34.1531 26.5027Z" fill="white"/>
<path d="M20.765 35.929C20.765 37.8152 19.236 39.3443 17.3497 39.3443C15.4635 39.3443 13.9344 37.8152 13.9344 35.929C13.9344 34.0428 15.4635 32.5137 17.3497 32.5137C19.236 32.5137 20.765 34.0428 20.765 35.929Z" fill="black"/>
<path d="M66.3935 50.2732C66.3935 51.0277 66.0265 51.6393 65.5738 51.6393C65.1211 51.6393 64.7542 51.0277 64.7542 50.2732C64.7542 49.5187 65.1211 48.9071 65.5738 48.9071C66.0265 48.9071 66.3935 49.5187 66.3935 50.2732Z" fill="white"/>
<path d="M19.1258 35.9289C19.1258 36.9097 18.3306 37.7049 17.3498 37.7049C16.369 37.7049 15.5739 36.9097 15.5739 35.9289C15.5739 34.9481 16.369 34.153 17.3498 34.153C18.3306 34.153 19.1258 34.9481 19.1258 35.9289Z" fill="white"/>
<path d="M55.4645 57.377L45.6285 60.3825C43.4425 60.9557 42.4058 61.3827 41.8033 62.8415C41.7522 63.1616 41.7428 63.3411 41.8033 63.6612C43.139 66.8211 50.1367 70.6284 53.0055 71.0382C55.8744 71.4481 56.5574 71.3115 57.3771 71.3115C58.1968 71.3115 61.284 70.1484 63.388 68.0328C59.6331 68.7081 58.2035 68.5861 55.7378 68.306C50.44 67.4111 46.9946 64.2076 46.9946 63.9344C46.9946 63.6612 45.9017 65.1639 45.9017 64.7541C45.9017 64.3443 45.9017 64.3443 46.1749 63.6612L46.1749 63.6612C46.4481 62.9781 47.2489 62.4772 48.2241 62.5683C48.016 62.8808 47.9476 63.0578 48.2241 63.388C50.2736 64.5073 51.566 65.0096 54.0984 65.7104C57.4896 66.2777 59.3385 66.3407 62.5684 66.1202C67.4857 65.6138 71.7214 62.2951 72.6776 61.4754C73.6339 60.6557 73.3607 60.5191 73.3607 60.1093C73.3607 59.6994 71.1749 57.9235 70.082 57.377C68.9891 56.8306 67.4794 56.8138 66.3935 56.5574H60.929L55.4645 57.377Z" fill="#FFA300"/>
<path d="M50.8197 52.8688C50.8197 56.1131 49.5964 58.7431 48.0875 58.7431C46.5785 58.7431 45.3552 56.1131 45.3552 52.8688C45.3552 49.6245 46.5785 46.9945 48.0875 46.9945C49.5964 46.9945 50.8197 49.6245 50.8197 52.8688Z" fill="black"/>
<path d="M50 50.2733C50 51.1786 49.5107 51.9126 48.9071 51.9126C48.3035 51.9126 47.8142 51.1786 47.8142 50.2733C47.8142 49.3679 48.3035 48.6339 48.9071 48.6339C49.5107 48.6339 50 49.3679 50 50.2733Z" fill="white"/>
<path d="M72.1313 80.8743C74.6555 84.1758 75.7682 85.5756 76.9375 89.5084C76.7444 89.6403 76.5504 89.7711 76.3553 89.9003C75.0143 86.3018 73.8972 84.6949 71.5848 81.1475C69.0447 78.3203 68.5185 77.3467 67.4864 75.5464L72.1313 80.8743ZM18.0329 39.3443C18.8509 41.7483 19.164 43.177 19.399 45.9016C19.1065 46.1584 18.8726 46.2238 18.3061 46.1749C18.111 44.0812 17.6231 40.847 17.3498 40.9836C17.0766 41.1202 16.6102 43.9242 16.3936 46.1749C15.897 46.26 15.6598 46.2033 15.3007 45.9016C15.5763 42.926 15.8571 41.4607 16.6668 39.3443H18.0329ZM53.2788 33.0601C58.89 34.0659 61.2023 35.929 64.481 40.3005C63.2464 40.3257 62.696 40.725 61.7487 41.53C57.4114 35.8101 57.166 35.1088 53.2788 33.0601ZM66.1203 26.3661L68.3061 36.612L64.6176 35.2459L59.0165 32.2404L63.3881 33.4699L61.4755 25.5464L59.563 23.224H60.3826L66.1203 26.3661ZM80.328 24.8634V25.6831L51.7761 15.0273L18.3061 26.2295V25.4098L51.7761 14.2076L80.328 24.8634Z" fill="#40CDAA"/>
<path d="M86.2022 18.7646C86.5741 19.1953 86.9385 19.6327 87.2951 20.0766V28.8505L88.7365 33.3805L89.8907 36.4108V48.5562C89.8907 48.839 89.8358 49.1191 89.729 49.3809L88.5505 52.2738C88.4438 52.5357 88.3888 52.8158 88.3888 53.0986V78.5081C88.0328 78.9867 87.6683 79.4585 87.2951 79.9231V52.8872C87.2951 52.6045 87.3499 52.3243 87.4565 52.0625L88.6364 49.167C88.7431 48.9051 88.7978 48.625 88.7978 48.3422V36.612L87.705 33.7431L86.7487 30.7377L85.7924 33.7431L84.8361 36.612L84.5722 48.3534C84.566 48.629 84.6121 48.9032 84.7078 49.1616L85.7911 52.0868C85.8822 52.3329 85.9283 52.5935 85.9271 52.856L85.7948 81.7012C85.4289 82.114 85.0555 82.5201 84.6757 82.92L84.8329 53.0497C84.8343 52.7867 84.7882 52.5255 84.6968 52.2789L83.6103 49.3457C83.5146 49.0873 83.4686 48.8131 83.4748 48.5375L83.7472 36.4228L84.7555 33.3976L86.2022 28.8505V18.7646Z" fill="black"/>
<path d="M50 0C77.6142 0 100 22.3858 100 50C100 77.6142 77.6142 100 50 100C22.3858 100 0 77.6142 0 50C0 22.3858 22.3858 0 50 0ZM50 2.18579C23.5929 2.18579 2.18579 23.5929 2.18579 50C2.18579 76.4071 23.5929 97.8142 50 97.8142C76.4071 97.8142 97.8142 76.4071 97.8142 50C97.8142 23.5929 76.4071 2.18579 50 2.18579Z" fill="black"/>
</svg>
