<svg width="366" height="366" viewBox="0 0 366 366" fill="none" xmlns="http://www.w3.org/2000/svg">
<circle cx="183" cy="183" r="179" fill="#E6E6E6" stroke="black" stroke-width="8"/>
<path d="M342.988 254C315.758 315.271 254.367 358 182.994 358C111.621 358 50.2307 315.271 23 254H342.988Z" fill="#40CDAA"/>
<path d="M321 123.5L325 134V178.5L319.5 192V297L313.5 301.5L314.5 192L309.5 178.5L310.5 134L314 123.5L317.5 112.5L321 123.5Z" fill="white"/>
<path d="M300 142.593L299.317 141.995L297.306 140.235C300.256 138.432 302.925 137.295 305.68 136.584C309.116 135.697 312.788 135.446 317.478 135.5C321.896 135.55 326.346 136.156 330.142 137.216C332.902 137.987 335.2 138.968 336.886 140.066L334.683 141.995L334 142.593V144.383L329.664 147.051L328.936 146.665C326.211 145.223 322.156 144.568 318.152 144.505C314.102 144.44 309.76 144.976 306.339 146.175L305 146.644V147.763L300 144.43V142.593Z" stroke="black" stroke-width="4"/>
<path d="M314.586 149L308.121 149.852C307.527 149.931 307 149.468 307 148.869C307 148.372 307.369 147.951 307.862 147.886L314.586 147H320.586L327.141 147.884C327.633 147.951 328 148.37 328 148.866C328 149.466 327.471 149.929 326.877 149.848L320.586 149H314.586Z" fill="#40CDAA"/>
<path d="M314.586 163L307 164V151L314.586 150H320.586L328 151V164L320.586 163H314.586Z" fill="black"/>
<path d="M306.344 138.183L300.081 139.171C299.248 139.303 298.942 140.342 299.57 140.904L305.833 146.509C306.477 147.085 307.5 146.628 307.5 145.763V139.17C307.5 138.556 306.951 138.087 306.344 138.183Z" fill="black"/>
<path d="M334.647 140.088L328.947 138.822C328.255 138.668 327.627 139.263 327.744 139.962L328.694 145.662C328.825 146.449 329.779 146.773 330.362 146.228L335.112 141.795C335.7 141.246 335.432 140.263 334.647 140.088Z" fill="black"/>
<path d="M303.5 127C303.5 127 308.772 125 318.386 125C328 125 331.5 127 331.5 127" stroke="black" stroke-width="4" stroke-linecap="round"/>
<path d="M183.5 358C108 358 68.5 315.5 68.5 315.5C75.363 298.967 79.9285 291.733 91 280.5C101.275 270.039 105.085 263.49 111 251.5C112.939 242.983 113.039 236.354 111 230.5C105.94 219.576 104.906 213.443 104 202.5V186C106.443 169.109 108.979 160.72 117 149L107.5 143.5L110 117.5L67 101V120L72 141.5L77.5 168.5C77.0096 172.116 75.1441 170.919 69.4275 173.171H57.4275C52.2852 171.315 50.697 172.511 50 168.5L56 141.5L59.5 120V100L53 97V91L189.5 46L300 87V101L259 117.5L261 144L253 148C258.646 154.684 261.212 160.669 264 178C264.747 189.406 264.394 195.76 262 207C268.535 209.628 271.24 212.456 275 219C273.161 232.467 268.469 238.559 249 245C248.925 249.507 248.585 251.835 249.5 257C250.44 260.392 251.179 262.268 253.5 265.5C261.177 276.067 268.5 282 274.5 290C280.5 298 285.852 305.583 290.5 321C290.5 321 259 358 183.5 358Z" fill="black"/>
<path d="M159 248C185.5 267 209.5 272.5 235.204 256.5C235.204 256.5 234 260.5 236.5 272.5C238.952 284.272 253.858 308.049 261.087 339.653C239.024 350.672 214.308 357.166 188.152 357.922C174.512 358.064 160.78 356.87 147.611 354.419C141.27 353.117 135.054 351.471 128.983 349.503C128.048 318.006 149.416 290.432 153.5 277.5C157.605 264.5 159 248 159 248ZM106.5 317C106.498 317.008 103.723 331.369 103.5 338.5V338.94C102.675 338.519 101.854 338.09 101.037 337.656C101.696 328.736 106.496 317.01 106.5 317ZM256 303.5C261.861 312.817 266.661 315.793 271.983 333.719C270.57 334.555 269.143 335.371 267.704 336.168C265.451 322.894 261.508 316.921 256 303.5ZM244 257C245.747 268.828 253.5 277.5 268.5 295C283.295 312.261 281.607 310.078 286.095 324.422C284.608 325.508 283.101 326.569 281.579 327.608C277.201 313.402 272.887 308.414 264 296C244.822 278.615 242.694 270.503 244 257ZM147 132L138.5 138C138.495 138.007 134.654 143.143 132 146.5C128.303 151.176 126.721 154.196 124 159.5C121.765 163.857 120.632 166.383 119 171C117.579 175.021 117.225 177.415 116 181.5C114.5 186.5 115.5 196 115.5 201C115.5 206 120 221.5 121 226.5C122 231.5 122.5 243 121.5 249.5C120.5 256 119.33 258.548 117 264C114.093 270.803 102.833 282.851 93.5 294C85.8805 304.301 82.8126 310.421 78.7793 323.591C77.5818 322.702 76.3954 321.799 75.2217 320.88C79.8185 307.937 82.7371 302.554 90.5 292C100.621 282.007 111 268 113.5 263C116 258 116.574 254.92 117.5 249.5C118.635 242.857 117.439 230.553 117.09 227.304C117.032 226.763 116.912 226.239 116.743 225.723C113.426 215.58 112 207.339 112 201C112 194.5 111.5 185 112 181.5C112.5 178 115 170.5 115 170.5L120 159.5C120.002 159.496 124.19 149.672 128.5 144.5C131.418 140.998 132.98 138.397 136.5 135.5C139.847 132.745 140 132.5 146 130C151.994 127.503 156.49 127.5 156.5 127.5L147 132ZM179 160C205 160 209 209 209 209L190.5 214L167 221C155.363 212.13 153.641 206.09 152 195V187C156.488 167.462 161.522 162.606 173 160H179ZM241 166C251.5 166 254.5 176 255 183C255.5 190 256.182 196.311 253 205C249.5 203.5 247.5 203.5 245 203L245.5 183C244.26 179.472 242 176 238.5 176C235 176 232 180.5 231.5 183C231 185.5 231 203 231 203H226C225.767 197.249 225.5 189.5 226.5 183C227.5 176.5 230.5 166 241 166ZM195 121C213.5 121 229.5 120 253.5 160C245.418 150.635 241.892 148.998 236 147.5C218.874 127.196 214.644 126.428 195 121ZM248.5 95.5L255.5 140L245 134.5L236.5 129L250 134L242 96.5L221 85L248.5 95.5ZM125 97L119 134.5L138.5 126.5L114 139.5L118.5 95L146.5 86L125 97Z" fill="white"/>
<circle cx="63.5" cy="131.5" r="12.5" fill="black"/>
<ellipse cx="240" cy="184" rx="3" ry="5" fill="white"/>
<circle cx="63.5" cy="131.5" r="6.5" fill="white"/>
<path d="M203 210L167 221C159 223.098 155.205 224.661 153 230C152.813 231.172 152.778 231.828 153 233C157.889 244.565 183.5 258.5 194 260C204.5 261.5 207 261 210 261C213 261 224.299 256.743 232 249C218.257 251.472 213.025 251.025 204 250C184.61 246.725 172 235 172 234C172 233 168 238.5 168 237C168 235.5 168 235.5 169 233L169 233C170 230.5 172.931 228.666 176.5 229C175.738 230.144 175.488 230.791 176.5 232C184.001 236.097 188.732 237.935 198 240.5C210.412 242.576 217.179 242.807 229 242C246.997 240.146 262.5 228 266 225C269.5 222 268.5 221.5 268.5 220C268.5 218.5 260.5 212 256.5 210C252.5 208 246.975 207.938 243 207H223L203 210Z" fill="#FFA300"/>
<ellipse cx="176" cy="193.5" rx="10" ry="21.5" fill="black"/>
<ellipse cx="179" cy="184" rx="4" ry="6" fill="white"/>
<path d="M264 296C273.239 308.083 277.311 313.207 281.591 327.601C280.884 328.083 280.174 328.562 279.46 329.035C274.552 315.865 270.463 309.983 262 297C252.703 286.652 250.777 283.089 247 276.5L264 296ZM66 144C68.994 152.799 70.1398 158.028 71 168C69.9293 168.94 69.0734 169.179 67 169C66.2859 161.337 64.5 149.5 63.5 150C62.5 150.5 60.793 160.763 60 169C58.1825 169.312 57.3144 169.104 56 168C57.0087 157.109 58.0367 151.746 61 144H66ZM195 121C215.537 124.681 224 131.5 236 147.5C231.481 147.592 229.467 149.054 226 152C210.125 131.065 209.227 128.498 195 121ZM242 96.5L250 134L236.5 129L216 118L232 122.5L225 93.5L218 85H221L242 96.5ZM294 91V94L189.5 55L67 96V93L189.5 52L294 91Z" fill="#40CDAA"/>
<path d="M315.5 68.6787C316.861 70.255 318.195 71.8558 319.5 73.4805V105.593L324.775 122.173L329 133.264V177.716C329 178.751 328.799 179.776 328.408 180.734L324.095 191.322C323.704 192.281 323.503 193.306 323.503 194.341V287.34C322.2 289.091 320.866 290.818 319.5 292.519V193.567C319.5 192.533 319.7 191.507 320.091 190.549L324.409 179.951C324.8 178.993 325 177.967 325 176.933V134L321 123.5L317.5 112.5L314 123.5L310.5 134L309.534 176.974C309.512 177.982 309.68 178.986 310.03 179.932L313.995 190.638C314.329 191.539 314.498 192.492 314.493 193.453L314.009 299.026C312.67 300.537 311.303 302.024 309.913 303.487L310.488 194.162C310.493 193.199 310.325 192.244 309.99 191.341L306.014 180.605C305.663 179.66 305.495 178.656 305.518 177.647L306.515 133.308L310.205 122.235L315.5 105.593V68.6787Z" fill="black"/>
<path d="M183 0C284.068 0 366 81.9319 366 183C366 284.068 284.068 366 183 366C81.9319 366 0 284.068 0 183C0 81.9319 81.9319 0 183 0ZM183 8C86.3502 8 8 86.3502 8 183C8 279.65 86.3502 358 183 358C279.65 358 358 279.65 358 183C358 86.3502 279.65 8 183 8Z" fill="black"/>
</svg>
