<svg width="443" height="100" viewBox="0 0 443 100" fill="none" xmlns="http://www.w3.org/2000/svg">
<path d="M442.754 20.02V42.19H440.534L440.294 40.12C439.714 40.92 439.044 41.52 438.284 41.92C437.524 42.32 436.704 42.52 435.824 42.52C433.824 42.52 432.314 41.79 431.294 40.33C430.294 38.87 429.794 36.86 429.794 34.3C429.794 32.72 430.044 31.31 430.544 30.07C431.044 28.81 431.754 27.83 432.674 27.13C433.614 26.41 434.714 26.05 435.974 26.05C437.714 26.05 439.134 26.68 440.234 27.94V19.72L442.754 20.02ZM436.634 28.09C435.314 28.09 434.294 28.61 433.574 29.65C432.874 30.69 432.524 32.24 432.524 34.3C432.524 36.34 432.844 37.89 433.484 38.95C434.144 39.99 435.094 40.51 436.334 40.51C437.834 40.51 439.134 39.67 440.234 37.99V30.13C439.794 29.47 439.264 28.97 438.644 28.63C438.024 28.27 437.354 28.09 436.634 28.09Z" fill="black"/>
<path d="M415.766 26.3799H417.926L418.136 28.5999C418.756 27.7999 419.536 27.1799 420.476 26.7399C421.436 26.2799 422.396 26.0499 423.356 26.0499C426.316 26.0499 427.796 27.6099 427.796 30.7299V42.1899H425.276V32.5899C425.276 31.4099 425.206 30.5099 425.066 29.8899C424.946 29.2699 424.696 28.8099 424.316 28.5099C423.936 28.2099 423.356 28.0599 422.576 28.0599C421.716 28.0599 420.906 28.3199 420.146 28.8399C419.386 29.3599 418.766 29.9799 418.286 30.6999V42.1899H415.766V26.3799Z" fill="black"/>
<path d="M412.117 38.7399C412.117 39.3599 412.217 39.8199 412.417 40.1199C412.617 40.3999 412.947 40.6099 413.407 40.7499L412.777 42.5499C411.237 42.3499 410.277 41.5999 409.897 40.2999C409.337 41.0199 408.627 41.5699 407.767 41.9499C406.927 42.3299 405.987 42.5199 404.947 42.5199C403.367 42.5199 402.117 42.0799 401.197 41.1999C400.297 40.3199 399.847 39.1399 399.847 37.6599C399.847 36.0399 400.477 34.7899 401.737 33.9099C403.017 33.0299 404.847 32.5899 407.227 32.5899H409.567V31.2999C409.567 30.1799 409.247 29.3799 408.607 28.8999C407.967 28.3999 407.037 28.1499 405.817 28.1499C404.617 28.1499 403.247 28.4199 401.707 28.9599L401.017 27.0399C402.877 26.3799 404.607 26.0499 406.207 26.0499C408.127 26.0499 409.587 26.4999 410.587 27.3999C411.607 28.2999 412.117 29.5499 412.117 31.1499V38.7399ZM405.577 40.6299C406.357 40.6299 407.097 40.4299 407.797 40.0299C408.517 39.6299 409.107 39.0799 409.567 38.3799V34.3299H407.287C405.607 34.3299 404.397 34.6099 403.657 35.1699C402.917 35.7299 402.547 36.5499 402.547 37.6299C402.547 39.6299 403.557 40.6299 405.577 40.6299Z" fill="black"/>
<path d="M391.969 38.2899C391.969 39.7099 392.839 40.4199 394.579 40.4199C395.399 40.4199 396.279 40.2399 397.219 39.8799L397.879 41.7099C396.879 42.2499 395.629 42.5199 394.129 42.5199C392.709 42.5199 391.569 42.1299 390.709 41.3499C389.869 40.5699 389.449 39.5099 389.449 38.1699V22.0299H384.589V20.0199H391.969V38.2899Z" fill="black"/>
<path d="M373.501 42.19H370.981V20.02L373.501 19.72V42.19ZM376.951 33.52L384.871 42.19H381.541L373.771 33.55L380.791 26.38H384.031L376.951 33.52Z" fill="black"/>
<path d="M362.982 40.3599C364.362 40.3599 365.732 39.8999 367.092 38.9799L368.292 40.6299C367.632 41.2099 366.812 41.6699 365.832 42.0099C364.852 42.3499 363.902 42.5199 362.982 42.5199C360.642 42.5199 358.812 41.7899 357.492 40.3299C356.192 38.8499 355.542 36.8599 355.542 34.3599C355.542 32.7799 355.832 31.3599 356.412 30.0999C357.012 28.8399 357.872 27.8499 358.992 27.1299C360.112 26.4099 361.442 26.0499 362.982 26.0499C365.022 26.0499 366.782 26.6699 368.262 27.9099L367.032 29.5599C365.652 28.6399 364.292 28.1799 362.952 28.1799C361.532 28.1799 360.392 28.7099 359.532 29.7699C358.692 30.8099 358.272 32.3399 358.272 34.3599C358.272 36.3799 358.692 37.8899 359.532 38.8899C360.392 39.8699 361.542 40.3599 362.982 40.3599Z" fill="black"/>
<path d="M343.344 37.5999C343.344 38.6199 343.554 39.3699 343.974 39.8499C344.414 40.3099 345.094 40.5399 346.014 40.5399C346.854 40.5399 347.664 40.2999 348.444 39.8199C349.224 39.3399 349.844 38.7399 350.304 38.0199V26.3799H352.824V42.1899H350.664L350.454 40.0599C349.834 40.8399 349.064 41.4499 348.144 41.8899C347.244 42.3099 346.324 42.5199 345.384 42.5199C343.884 42.5199 342.744 42.1199 341.964 41.3199C341.204 40.5199 340.824 39.3699 340.824 37.8699V26.3799H343.344V37.5999Z" fill="black"/>
<path d="M327.666 36.9099L326.016 42.1899H323.436L330.186 21.5199H333.486L340.206 42.1899H337.506L335.856 36.9099H327.666ZM335.166 34.7499L331.776 23.7399L328.356 34.7499H335.166Z" fill="black"/>
<path d="M305.189 19.72C306.689 19.72 308.119 20 309.479 20.56L308.669 22.45C307.669 22.01 306.539 21.79 305.279 21.79C303.079 21.79 301.979 22.66 301.979 24.4V27.61H307.319L307.049 29.62H301.979V42.19H299.429V29.62H295.679V27.61H299.429V24.46C299.429 23.04 299.969 21.9 301.049 21.04C302.149 20.16 303.529 19.72 305.189 19.72Z" fill="black"/>
<path d="M286.901 26.0499C289.081 26.0499 290.751 26.7899 291.911 28.2699C293.091 29.7299 293.681 31.7299 293.681 34.2699C293.681 36.7499 293.081 38.7499 291.881 40.2699C290.701 41.7699 289.031 42.5199 286.871 42.5199C284.691 42.5199 283.011 41.7899 281.831 40.3299C280.651 38.8499 280.061 36.8399 280.061 34.2999C280.061 31.7999 280.651 29.7999 281.831 28.2999C283.031 26.7999 284.721 26.0499 286.901 26.0499ZM286.901 28.1199C285.521 28.1199 284.491 28.6299 283.811 29.6499C283.131 30.6699 282.791 32.2199 282.791 34.2999C282.791 36.3799 283.121 37.9299 283.781 38.9499C284.461 39.9499 285.491 40.4499 286.871 40.4499C288.251 40.4499 289.271 39.9499 289.931 38.9499C290.611 37.9299 290.951 36.3699 290.951 34.2699C290.951 32.1899 290.611 30.6499 289.931 29.6499C289.271 28.6299 288.261 28.1199 286.901 28.1199Z" fill="black"/>
<path d="M258.515 42.2799C257.895 44.0999 257.045 45.5499 255.965 46.6299C254.885 47.7099 253.375 48.3499 251.435 48.5499L251.075 46.5399C252.135 46.3599 252.975 46.0799 253.595 45.6999C254.235 45.3399 254.735 44.8799 255.095 44.3199C255.455 43.7799 255.785 43.0699 256.085 42.1899H255.245L249.755 26.3799H252.425L256.955 40.2699L261.425 26.3799H264.035L258.515 42.2799Z" fill="black"/>
<path d="M248.476 41.3799C247.936 41.7399 247.276 42.0199 246.496 42.2199C245.736 42.4199 244.976 42.5199 244.216 42.5199C242.556 42.5199 241.256 42.0899 240.316 41.2299C239.376 40.3499 238.906 39.1999 238.906 37.7799V28.3599H235.276V26.3799H238.906V22.8099L241.426 22.5099V26.3799H246.916L246.586 28.3599H241.426V37.7499C241.426 38.6499 241.666 39.3199 242.146 39.7599C242.626 40.1999 243.396 40.4199 244.456 40.4199C245.536 40.4199 246.546 40.1699 247.486 39.6699L248.476 41.3799Z" fill="black"/>
<path d="M226.918 19C227.478 19 227.928 19.17 228.268 19.51C228.608 19.83 228.778 20.25 228.778 20.77C228.778 21.29 228.608 21.72 228.268 22.06C227.928 22.38 227.478 22.54 226.918 22.54C226.378 22.54 225.938 22.38 225.598 22.06C225.278 21.72 225.118 21.29 225.118 20.77C225.118 20.25 225.278 19.83 225.598 19.51C225.938 19.17 226.378 19 226.918 19ZM228.928 40.18H233.368V42.19H221.548V40.18H226.408V28.39H221.698V26.38H228.928V40.18Z" fill="black"/>
<path d="M211.33 40.4499C212.53 40.4499 213.48 40.2199 214.18 39.7599C214.88 39.2999 215.23 38.6899 215.23 37.9299C215.23 37.4099 215.14 36.9899 214.96 36.6699C214.78 36.3299 214.42 36.0299 213.88 35.7699C213.34 35.4899 212.52 35.2099 211.42 34.9299C209.58 34.4699 208.22 33.9199 207.34 33.2799C206.46 32.6199 206.02 31.6499 206.02 30.3699C206.02 29.0499 206.57 27.9999 207.67 27.2199C208.77 26.4399 210.22 26.0499 212.02 26.0499C214.22 26.0499 216.14 26.6299 217.78 27.7899L216.64 29.5299C215.98 29.0699 215.29 28.7199 214.57 28.4799C213.85 28.2199 213.02 28.0899 212.08 28.0899C209.8 28.0899 208.66 28.7799 208.66 30.1599C208.66 30.6399 208.78 31.0299 209.02 31.3299C209.28 31.6299 209.69 31.8999 210.25 32.1399C210.83 32.3599 211.69 32.6299 212.83 32.9499C214.55 33.4099 215.83 33.9999 216.67 34.7199C217.53 35.4199 217.96 36.4499 217.96 37.8099C217.96 39.3899 217.32 40.5699 216.04 41.3499C214.76 42.1299 213.19 42.5199 211.33 42.5199C208.85 42.5199 206.79 41.8099 205.15 40.3899L206.56 38.7399C207.2 39.2599 207.93 39.6799 208.75 39.9999C209.57 40.2999 210.43 40.4499 211.33 40.4499Z" fill="black"/>
<path d="M201.621 26.0499C202.261 26.0499 203.001 26.1599 203.841 26.3799L203.481 31.7499H201.441V28.3599H201.291C198.851 28.3599 197.121 30.0999 196.101 33.5799V40.2399H199.311V42.1899H191.091V40.2399H193.581V28.3299H191.091V26.3799H195.471L195.951 30.1299C196.591 28.7699 197.351 27.7499 198.231 27.0699C199.131 26.3899 200.261 26.0499 201.621 26.0499Z" fill="black"/>
<path d="M177.963 35.1699C178.023 36.9099 178.473 38.2199 179.313 39.0999C180.173 39.9799 181.253 40.4199 182.553 40.4199C183.333 40.4199 184.043 40.3099 184.683 40.0899C185.343 39.8499 186.043 39.4899 186.783 39.0099L187.953 40.6899C187.213 41.2699 186.363 41.7199 185.403 42.0399C184.463 42.3599 183.513 42.5199 182.553 42.5199C180.273 42.5199 178.493 41.7799 177.213 40.2999C175.953 38.7999 175.323 36.7999 175.323 34.2999C175.323 32.7199 175.603 31.3099 176.163 30.0699C176.723 28.8099 177.523 27.8299 178.563 27.1299C179.603 26.4099 180.813 26.0499 182.193 26.0499C184.193 26.0499 185.763 26.7499 186.903 28.1499C188.063 29.5299 188.643 31.4199 188.643 33.8199C188.643 34.2799 188.623 34.7299 188.583 35.1699H177.963ZM182.223 28.1199C181.003 28.1199 180.013 28.5599 179.253 29.4399C178.493 30.2999 178.063 31.5699 177.963 33.2499H186.183C186.163 31.5899 185.803 30.3199 185.103 29.4399C184.403 28.5599 183.443 28.1199 182.223 28.1199Z" fill="black"/>
<path d="M168.405 42.1899H165.495L159.765 26.3799H162.465L167.025 39.9099L171.525 26.3799H174.165L168.405 42.1899Z" fill="black"/>
<path d="M151.977 19C152.537 19 152.987 19.17 153.327 19.51C153.667 19.83 153.837 20.25 153.837 20.77C153.837 21.29 153.667 21.72 153.327 22.06C152.987 22.38 152.537 22.54 151.977 22.54C151.437 22.54 150.997 22.38 150.657 22.06C150.337 21.72 150.177 21.29 150.177 20.77C150.177 20.25 150.337 19.83 150.657 19.51C150.997 19.17 151.437 19 151.977 19ZM153.987 40.18H158.427V42.19H146.607V40.18H151.467V28.39H146.757V26.38H153.987V40.18Z" fill="black"/>
<path d="M130.988 26.3799H133.148L133.358 28.5999C133.978 27.7999 134.758 27.1799 135.698 26.7399C136.658 26.2799 137.618 26.0499 138.578 26.0499C141.538 26.0499 143.018 27.6099 143.018 30.7299V42.1899H140.498V32.5899C140.498 31.4099 140.428 30.5099 140.288 29.8899C140.168 29.2699 139.918 28.8099 139.538 28.5099C139.158 28.2099 138.578 28.0599 137.798 28.0599C136.938 28.0599 136.128 28.3199 135.368 28.8399C134.608 29.3599 133.988 29.9799 133.508 30.6999V42.1899H130.988V26.3799Z" fill="black"/>
<path d="M128.84 35.4999C128.84 36.8799 128.55 38.1099 127.97 39.1899C127.41 40.2499 126.61 41.0699 125.57 41.6499C124.55 42.2299 123.35 42.5199 121.97 42.5199C120.57 42.5199 119.36 42.2299 118.34 41.6499C117.32 41.0499 116.53 40.2199 115.97 39.1599C115.43 38.0999 115.16 36.8799 115.16 35.4999V21.5199H117.77V35.5899C117.77 37.1499 118.13 38.3199 118.85 39.0999C119.57 39.8799 120.61 40.2699 121.97 40.2699C123.33 40.2699 124.37 39.8799 125.09 39.0999C125.83 38.3199 126.2 37.1499 126.2 35.5899V21.5199H128.84V35.4999Z" fill="black"/>
<path d="M379.543 69.294C380.011 69.834 380.515 70.212 381.055 70.428C381.607 70.644 382.195 70.752 382.819 70.752C383.419 70.752 383.965 70.638 384.457 70.41C384.949 70.182 385.369 69.828 385.717 69.348C386.077 68.856 386.353 68.232 386.545 67.476C386.737 66.72 386.833 65.82 386.833 64.776C386.833 63.744 386.749 62.868 386.581 62.148C386.425 61.428 386.197 60.846 385.897 60.402C385.609 59.958 385.255 59.64 384.835 59.448C384.415 59.244 383.947 59.142 383.431 59.142C382.555 59.142 381.817 59.316 381.217 59.664C380.629 60 380.071 60.498 379.543 61.158V69.294ZM379.255 58.062C379.627 57.654 380.023 57.282 380.443 56.946C380.863 56.598 381.313 56.304 381.793 56.064C382.273 55.812 382.789 55.62 383.341 55.488C383.893 55.344 384.493 55.272 385.141 55.272C386.137 55.272 387.049 55.488 387.877 55.92C388.717 56.34 389.437 56.958 390.037 57.774C390.637 58.578 391.105 59.568 391.441 60.744C391.777 61.92 391.945 63.264 391.945 64.776C391.945 66.168 391.753 67.458 391.369 68.646C390.997 69.822 390.463 70.842 389.767 71.706C389.071 72.57 388.231 73.248 387.247 73.74C386.275 74.22 385.189 74.46 383.989 74.46C382.981 74.46 382.123 74.31 381.415 74.01C380.719 73.71 380.095 73.302 379.543 72.786V80.184H374.575V55.632H377.635C378.259 55.632 378.673 55.92 378.877 56.496L379.255 58.062Z" fill="black"/>
<path d="M370.475 55.632V74.19H367.415C366.779 74.19 366.371 73.902 366.191 73.326L365.867 72.03C365.495 72.39 365.111 72.72 364.715 73.02C364.319 73.32 363.893 73.578 363.437 73.794C362.993 74.01 362.507 74.178 361.979 74.298C361.463 74.418 360.899 74.478 360.287 74.478C359.279 74.478 358.379 74.304 357.587 73.956C356.807 73.608 356.153 73.122 355.625 72.498C355.097 71.874 354.695 71.13 354.419 70.266C354.143 69.402 354.005 68.454 354.005 67.422V55.632H358.973V67.422C358.973 68.454 359.207 69.258 359.675 69.834C360.155 70.398 360.863 70.68 361.799 70.68C362.495 70.68 363.149 70.53 363.761 70.23C364.373 69.918 364.955 69.498 365.507 68.97V55.632H370.475Z" fill="black"/>
<path d="M341.777 55.344C343.169 55.344 344.435 55.566 345.575 56.01C346.715 56.454 347.693 57.09 348.509 57.918C349.325 58.734 349.955 59.73 350.399 60.906C350.843 62.082 351.065 63.408 351.065 64.884C351.065 66.36 350.843 67.692 350.399 68.88C349.955 70.056 349.325 71.058 348.509 71.886C347.693 72.714 346.715 73.35 345.575 73.794C344.435 74.238 343.169 74.46 341.777 74.46C340.373 74.46 339.095 74.238 337.943 73.794C336.803 73.35 335.825 72.714 335.009 71.886C334.193 71.058 333.557 70.056 333.101 68.88C332.657 67.692 332.435 66.36 332.435 64.884C332.435 63.408 332.657 62.082 333.101 60.906C333.557 59.73 334.193 58.734 335.009 57.918C335.825 57.09 336.803 56.454 337.943 56.01C339.095 55.566 340.373 55.344 341.777 55.344ZM341.777 70.734C343.193 70.734 344.243 70.248 344.927 69.276C345.611 68.292 345.953 66.834 345.953 64.902C345.953 62.982 345.611 61.536 344.927 60.564C344.243 59.58 343.193 59.088 341.777 59.088C340.325 59.088 339.257 59.58 338.573 60.564C337.889 61.536 337.547 62.982 337.547 64.902C337.547 66.834 337.889 68.292 338.573 69.276C339.257 70.248 340.325 70.734 341.777 70.734Z" fill="black"/>
<path d="M324.921 58.692C325.509 57.636 326.187 56.802 326.955 56.19C327.723 55.578 328.623 55.272 329.655 55.272C330.495 55.272 331.179 55.47 331.707 55.866L331.383 59.538C331.323 59.778 331.227 59.946 331.095 60.042C330.975 60.126 330.807 60.168 330.591 60.168C330.399 60.168 330.123 60.144 329.763 60.096C329.403 60.036 329.067 60.006 328.755 60.006C328.299 60.006 327.891 60.072 327.531 60.204C327.183 60.336 326.871 60.522 326.595 60.762C326.319 61.002 326.067 61.296 325.839 61.644C325.623 61.992 325.419 62.388 325.227 62.832V74.19H320.259V55.632H323.193C323.697 55.632 324.045 55.722 324.237 55.902C324.429 56.082 324.567 56.394 324.651 56.838L324.921 58.692Z" fill="black"/>
<path d="M307.811 60.8879H316.775V71.6699C315.443 72.6419 314.021 73.3559 312.509 73.8119C311.009 74.2559 309.419 74.4779 307.739 74.4779C305.591 74.4779 303.647 74.1479 301.907 73.4879C300.167 72.8159 298.679 71.8859 297.443 70.6979C296.207 69.5099 295.253 68.0999 294.581 66.4679C293.909 64.8359 293.573 63.0539 293.573 61.1219C293.573 59.1659 293.891 57.3719 294.527 55.7399C295.175 54.1079 296.093 52.7039 297.281 51.5279C298.469 50.3519 299.903 49.4339 301.583 48.7739C303.275 48.1139 305.165 47.7839 307.253 47.7839C308.333 47.7839 309.341 47.8739 310.277 48.0539C311.213 48.2219 312.077 48.4619 312.869 48.7739C313.661 49.0739 314.387 49.4339 315.047 49.8539C315.707 50.2739 316.307 50.7359 316.847 51.2399L315.281 53.6519C315.041 54.0359 314.729 54.2699 314.345 54.3539C313.961 54.4379 313.541 54.3419 313.085 54.0659C312.653 53.8019 312.227 53.5679 311.807 53.3639C311.399 53.1479 310.961 52.9619 310.493 52.8059C310.025 52.6499 309.515 52.5299 308.963 52.4459C308.411 52.3619 307.775 52.3199 307.055 52.3199C305.843 52.3199 304.745 52.5299 303.761 52.9499C302.777 53.3699 301.937 53.9639 301.241 54.7319C300.557 55.4999 300.029 56.4239 299.657 57.5039C299.285 58.5839 299.099 59.7899 299.099 61.1219C299.099 62.5619 299.303 63.8519 299.711 64.9919C300.119 66.1199 300.695 67.0739 301.439 67.8539C302.183 68.6339 303.071 69.2279 304.103 69.6359C305.147 70.0439 306.305 70.2479 307.577 70.2479C308.441 70.2479 309.209 70.1639 309.881 69.9959C310.565 69.8159 311.231 69.5759 311.879 69.2759V64.8839H308.927C308.579 64.8839 308.303 64.7939 308.099 64.6139C307.907 64.4219 307.811 64.1819 307.811 63.8939V60.8879Z" fill="black"/>
<path d="M277.706 58.692C278.294 57.636 278.972 56.802 279.74 56.19C280.508 55.578 281.408 55.272 282.44 55.272C283.28 55.272 283.964 55.47 284.492 55.866L284.168 59.538C284.108 59.778 284.012 59.946 283.88 60.042C283.76 60.126 283.592 60.168 283.376 60.168C283.184 60.168 282.908 60.144 282.548 60.096C282.188 60.036 281.852 60.006 281.54 60.006C281.084 60.006 280.676 60.072 280.316 60.204C279.968 60.336 279.656 60.522 279.38 60.762C279.104 61.002 278.852 61.296 278.624 61.644C278.408 61.992 278.204 62.388 278.012 62.832V74.19H273.044V55.632H275.978C276.482 55.632 276.83 55.722 277.022 55.902C277.214 56.082 277.352 56.394 277.436 56.838L277.706 58.692Z" fill="black"/>
<path d="M265.515 62.724C265.515 62.208 265.443 61.716 265.299 61.248C265.167 60.78 264.951 60.366 264.651 60.006C264.351 59.646 263.973 59.364 263.517 59.16C263.061 58.944 262.515 58.836 261.879 58.836C260.691 58.836 259.761 59.172 259.089 59.844C258.417 60.516 257.979 61.476 257.775 62.724H265.515ZM257.703 65.676C257.859 67.416 258.351 68.688 259.179 69.492C260.019 70.296 261.111 70.698 262.455 70.698C263.139 70.698 263.727 70.62 264.219 70.464C264.723 70.296 265.161 70.116 265.533 69.924C265.917 69.72 266.259 69.54 266.559 69.384C266.871 69.216 267.177 69.132 267.477 69.132C267.861 69.132 268.161 69.276 268.377 69.564L269.817 71.364C269.289 71.976 268.707 72.486 268.071 72.894C267.435 73.29 266.775 73.608 266.091 73.848C265.407 74.076 264.717 74.232 264.021 74.316C263.325 74.412 262.653 74.46 262.005 74.46C260.709 74.46 259.497 74.25 258.369 73.83C257.253 73.398 256.275 72.768 255.435 71.94C254.607 71.1 253.953 70.062 253.473 68.826C252.993 67.59 252.753 66.156 252.753 64.524C252.753 63.264 252.957 62.076 253.365 60.96C253.785 59.844 254.385 58.872 255.165 58.044C255.945 57.216 256.893 56.562 258.009 56.082C259.125 55.59 260.385 55.344 261.789 55.344C262.977 55.344 264.069 55.536 265.065 55.92C266.073 56.292 266.937 56.838 267.657 57.558C268.389 58.278 268.953 59.166 269.349 60.222C269.757 61.266 269.961 62.46 269.961 63.804C269.961 64.176 269.943 64.482 269.907 64.722C269.871 64.962 269.811 65.154 269.727 65.298C269.643 65.442 269.529 65.544 269.385 65.604C269.241 65.652 269.055 65.676 268.827 65.676H257.703Z" fill="black"/>
<path d="M249.356 59.448C249.224 59.652 249.086 59.802 248.942 59.898C248.81 59.982 248.624 60.024 248.384 60.024C248.144 60.024 247.898 59.964 247.646 59.844C247.394 59.724 247.112 59.598 246.8 59.466C246.488 59.322 246.128 59.19 245.72 59.07C245.324 58.95 244.862 58.89 244.334 58.89C243.53 58.89 242.906 59.058 242.462 59.394C242.018 59.718 241.796 60.15 241.796 60.69C241.796 61.062 241.922 61.374 242.174 61.626C242.426 61.878 242.756 62.1 243.164 62.292C243.584 62.472 244.058 62.646 244.586 62.814C245.114 62.97 245.654 63.144 246.206 63.336C246.77 63.528 247.316 63.75 247.844 64.002C248.372 64.254 248.84 64.572 249.248 64.956C249.668 65.328 250.004 65.784 250.256 66.324C250.508 66.852 250.634 67.494 250.634 68.25C250.634 69.15 250.466 69.984 250.13 70.752C249.806 71.508 249.326 72.162 248.69 72.714C248.054 73.266 247.262 73.698 246.314 74.01C245.366 74.322 244.274 74.478 243.038 74.478C242.402 74.478 241.772 74.418 241.148 74.298C240.524 74.19 239.93 74.034 239.366 73.83C238.802 73.614 238.274 73.368 237.782 73.092C237.29 72.816 236.864 72.516 236.504 72.192L237.656 70.338C237.788 70.122 237.95 69.954 238.142 69.834C238.346 69.714 238.604 69.654 238.916 69.654C239.216 69.654 239.492 69.732 239.744 69.888C239.996 70.032 240.278 70.194 240.59 70.374C240.902 70.542 241.268 70.704 241.688 70.86C242.12 71.004 242.654 71.076 243.29 71.076C243.77 71.076 244.184 71.022 244.532 70.914C244.88 70.806 245.162 70.662 245.378 70.482C245.594 70.29 245.75 70.08 245.846 69.852C245.954 69.612 246.008 69.366 246.008 69.114C246.008 68.706 245.876 68.376 245.612 68.124C245.36 67.86 245.024 67.632 244.604 67.44C244.196 67.248 243.722 67.074 243.182 66.918C242.642 66.762 242.09 66.588 241.526 66.396C240.974 66.204 240.428 65.976 239.888 65.712C239.36 65.448 238.886 65.118 238.466 64.722C238.058 64.314 237.722 63.816 237.458 63.228C237.206 62.64 237.08 61.926 237.08 61.086C237.08 60.318 237.23 59.592 237.53 58.908C237.83 58.212 238.28 57.6 238.88 57.072C239.48 56.544 240.224 56.124 241.112 55.812C242.012 55.5 243.05 55.344 244.226 55.344C245.546 55.344 246.746 55.56 247.826 55.992C248.906 56.424 249.794 56.988 250.49 57.684L249.356 59.448Z" fill="black"/>
<path d="M223.108 69.8699C223.984 69.8699 224.77 69.7259 225.466 69.4379C226.162 69.1379 226.75 68.7179 227.23 68.1779C227.71 67.6379 228.076 66.9839 228.328 66.2159C228.58 65.4479 228.706 64.5839 228.706 63.6239V48.0719H234.106V63.6239C234.106 65.2079 233.848 66.6659 233.332 67.9979C232.828 69.3179 232.102 70.4579 231.154 71.4179C230.206 72.3779 229.054 73.1279 227.698 73.6679C226.342 74.2079 224.812 74.4779 223.108 74.4779C221.404 74.4779 219.868 74.2079 218.5 73.6679C217.144 73.1279 215.992 72.3779 215.044 71.4179C214.096 70.4579 213.364 69.3179 212.848 67.9979C212.344 66.6659 212.092 65.2079 212.092 63.6239V48.0719H217.492V63.6239C217.492 64.5839 217.618 65.4479 217.87 66.2159C218.122 66.9839 218.488 67.6379 218.968 68.1779C219.448 68.7179 220.036 69.1379 220.732 69.4379C221.428 69.7259 222.22 69.8699 223.108 69.8699Z" fill="black"/>
<path d="M201.147 74.19H196.377C196.017 74.19 195.723 74.1 195.495 73.92C195.279 73.74 195.105 73.53 194.973 73.29L191.319 67.188C191.211 67.596 191.055 67.956 190.851 68.268L187.719 73.29C187.575 73.518 187.395 73.728 187.179 73.92C186.975 74.1 186.711 74.19 186.387 74.19H181.959L188.259 64.614L182.211 55.632H186.981C187.341 55.632 187.605 55.68 187.773 55.776C187.941 55.872 188.091 56.028 188.223 56.244L191.859 62.13C191.919 61.926 191.997 61.722 192.093 61.518C192.189 61.302 192.303 61.092 192.435 60.888L195.225 56.334C195.513 55.866 195.885 55.632 196.341 55.632H200.895L194.847 64.398L201.147 74.19Z" fill="black"/>
<path d="M179.928 55.632V74.19H176.868C176.232 74.19 175.824 73.902 175.644 73.326L175.32 72.03C174.948 72.39 174.564 72.72 174.168 73.02C173.772 73.32 173.346 73.578 172.89 73.794C172.446 74.01 171.96 74.178 171.432 74.298C170.916 74.418 170.352 74.478 169.74 74.478C168.732 74.478 167.832 74.304 167.04 73.956C166.26 73.608 165.606 73.122 165.078 72.498C164.55 71.874 164.148 71.13 163.872 70.266C163.596 69.402 163.458 68.454 163.458 67.422V55.632H168.426V67.422C168.426 68.454 168.66 69.258 169.128 69.834C169.608 70.398 170.316 70.68 171.252 70.68C171.948 70.68 172.602 70.53 173.214 70.23C173.826 69.918 174.408 69.498 174.96 68.97V55.632H179.928Z" fill="black"/>
<path d="M147.82 57.792C148.192 57.432 148.576 57.102 148.972 56.802C149.38 56.502 149.806 56.244 150.25 56.028C150.706 55.812 151.192 55.644 151.708 55.524C152.236 55.404 152.806 55.344 153.418 55.344C154.426 55.344 155.32 55.518 156.1 55.866C156.88 56.214 157.534 56.7 158.062 57.324C158.602 57.948 159.004 58.692 159.268 59.556C159.544 60.42 159.682 61.368 159.682 62.4V74.19H154.732V62.4C154.732 61.368 154.492 60.57 154.012 60.006C153.532 59.43 152.824 59.142 151.888 59.142C151.192 59.142 150.538 59.292 149.926 59.592C149.314 59.892 148.732 60.312 148.18 60.852V74.19H143.212V55.632H146.272C146.896 55.632 147.31 55.92 147.514 56.496L147.82 57.792Z" fill="black"/>
<path d="M138.973 55.632V74.19H134.005V55.632H138.973ZM139.567 50.358C139.567 50.778 139.483 51.168 139.315 51.528C139.147 51.888 138.919 52.206 138.631 52.482C138.355 52.758 138.025 52.974 137.641 53.13C137.269 53.286 136.867 53.364 136.435 53.364C136.027 53.364 135.637 53.286 135.265 53.13C134.905 52.974 134.587 52.758 134.311 52.482C134.035 52.206 133.813 51.888 133.645 51.528C133.489 51.168 133.411 50.778 133.411 50.358C133.411 49.938 133.489 49.548 133.645 49.188C133.813 48.816 134.035 48.492 134.311 48.216C134.587 47.94 134.905 47.724 135.265 47.568C135.637 47.412 136.027 47.334 136.435 47.334C136.867 47.334 137.269 47.412 137.641 47.568C138.025 47.724 138.355 47.94 138.631 48.216C138.919 48.492 139.147 48.816 139.315 49.188C139.483 49.548 139.567 49.938 139.567 50.358Z" fill="black"/>
<path d="M131.234 69.7979V74.1899H115.736V48.0719H121.136V69.7979H131.234Z" fill="black"/>
<path d="M97.8142 50C97.8142 76.4071 76.4071 97.8142 50 97.8142C23.5929 97.8142 2.18579 76.4071 2.18579 50C2.18579 23.5929 23.5929 2.18579 50 2.18579C76.4071 2.18579 97.8142 23.5929 97.8142 50Z" fill="#E6E6E6"/>
<path d="M97.8142 50C97.8142 23.5929 76.4071 2.18579 50 2.18579C23.5929 2.18579 2.18579 23.5929 2.18579 50C2.18579 76.4071 23.5929 97.8142 50 97.8142C76.4071 97.8142 97.8142 76.4071 97.8142 50ZM100 50C100 77.6142 77.6142 100 50 100C22.3858 100 0 77.6142 0 50C0 22.3858 22.3858 0 50 0C77.6142 0 100 22.3858 100 50Z" fill="black"/>
<path d="M93.7127 69.3989C86.2726 86.1397 69.4992 97.8142 49.9984 97.8142C30.4976 97.8142 13.7243 86.1397 6.28418 69.3989H93.7127Z" fill="#40CDAA"/>
<path d="M87.7049 33.7431L88.7978 36.612V48.7705L87.2951 52.459V81.1475L85.6558 82.377L85.929 52.459L84.5629 48.7705L84.8361 36.612L85.7924 33.7431L86.7487 30.7377L87.7049 33.7431Z" fill="white"/>
<path d="M86.7486 36.4754C89.2474 36.5039 91.8033 37.1585 92.8962 38.2514L91.8033 39.2077V39.7541L90.0273 40.847L89.8907 41.9399V43.1694L89.6175 41.9071V40.5554C88.3545 39.8868 85.5951 39.8531 83.8798 40.4542V41.8849L83.6066 43.1694L83.3333 41.9399L83.0601 40.847L81.4208 39.7541V39.2077L80.3279 38.2514C82.5137 36.7487 84.1472 36.4458 86.7486 36.4754ZM83.367 39.4758C83.2583 39.4894 83.1485 39.5034 83.0374 39.5182L83.1089 39.566L83.367 39.4758ZM89.9107 39.4833C89.9582 39.5046 90.0048 39.5267 90.0505 39.5495L90.1149 39.5097C90.0463 39.5007 89.9783 39.4918 89.9107 39.4833ZM90.9625 38.4912C87.8292 38.0173 85.4884 37.8968 82.2092 38.4454L82.2933 38.519C85.4743 38.0524 87.6509 38.0404 90.93 38.5195L90.9625 38.4912Z" fill="black"/>
<path d="M85.9525 40.7104L84.186 40.9432C84.0238 40.9646 83.8798 40.8383 83.8798 40.6747C83.8798 40.5388 83.9805 40.4239 84.1152 40.4061L85.9525 40.1639H87.5918L89.3829 40.4055C89.5172 40.4236 89.6175 40.5383 89.6175 40.6739C89.6175 40.8378 89.473 40.9641 89.3105 40.9422L87.5918 40.7104H85.9525Z" fill="#40CDAA"/>
<path d="M85.9525 44.5356L83.8798 44.8088V41.2569L85.9525 40.9836H87.5918L89.6175 41.2569V44.8088L87.5918 44.5356H85.9525Z" fill="black"/>
<path d="M83.7005 37.7547L81.9892 38.025C81.7617 38.0609 81.678 38.3449 81.8496 38.4985L83.5609 40.0296C83.737 40.1871 84.0164 40.0622 84.0164 39.826V38.0246C84.0164 37.8567 83.8664 37.7286 83.7005 37.7547Z" fill="black"/>
<path d="M91.4335 38.2754L89.8762 37.9293C89.6871 37.8873 89.5156 38.0499 89.5474 38.241L89.807 39.7983C89.8428 40.0133 90.1036 40.1018 90.2629 39.9531L91.5606 38.7419C91.7214 38.5919 91.6481 38.3231 91.4335 38.2754Z" fill="black"/>
<path d="M86.9907 33.6066C88.3419 33.6066 89.2811 33.7471 89.8953 33.895C90.2023 33.9689 90.428 34.0445 90.5829 34.1053C90.6603 34.1356 90.72 34.1622 90.7633 34.1829C90.7848 34.1932 90.8023 34.2022 90.8158 34.2093C90.8226 34.2129 90.8286 34.216 90.8334 34.2187C90.8358 34.2199 90.8379 34.2211 90.8398 34.2221C90.8408 34.2227 90.8417 34.2232 90.8425 34.2237C90.8429 34.224 90.8434 34.224 90.8438 34.2243L90.8444 34.2248C90.8439 34.2262 90.8314 34.2488 90.597 34.6589L90.8449 34.2251C91.1069 34.3748 91.1979 34.7085 91.0482 34.9706C90.8985 35.2325 90.565 35.3236 90.303 35.1741L90.3038 35.1744C90.3041 35.1746 90.3043 35.1748 90.3046 35.1749C90.3052 35.1753 90.306 35.1757 90.3065 35.176C90.3036 35.1746 90.2988 35.1723 90.292 35.1691C90.2728 35.1599 90.2372 35.1438 90.184 35.1229C90.0775 35.0812 89.8997 35.0202 89.6394 34.9575C89.1187 34.8321 88.2662 34.6995 86.9907 34.6995C85.7155 34.6995 84.7344 34.8322 84.0786 34.9623C83.7506 35.0274 83.5037 35.0917 83.3422 35.1386C83.2615 35.1621 83.2021 35.1815 83.1645 35.1941C83.1457 35.2004 83.1323 35.2049 83.1245 35.2078C83.1205 35.2092 83.1179 35.2103 83.1167 35.2107C83.1162 35.2109 83.1159 35.211 83.1159 35.211L83.1164 35.2107H83.1167V35.2104C82.8347 35.3171 82.5195 35.1752 82.4126 34.8932C82.3056 34.611 82.4477 34.2955 82.7298 34.1885L82.8958 34.6264C82.7393 34.2137 82.7305 34.1899 82.7301 34.1885L82.7304 34.1882C82.7306 34.1881 82.7309 34.1881 82.7312 34.188C82.7317 34.1878 82.7325 34.1875 82.7333 34.1872C82.7348 34.1866 82.7367 34.1858 82.7389 34.185C82.7433 34.1834 82.7491 34.1814 82.7562 34.1789C82.7708 34.1737 82.7911 34.1664 82.8168 34.1578C82.8682 34.1406 82.9417 34.1172 83.0369 34.0895C83.2276 34.034 83.5052 33.9617 83.8657 33.8902C84.5868 33.7471 85.6393 33.6066 86.9907 33.6066ZM90.3091 35.1773H90.3086L90.3065 35.176C90.3077 35.1766 90.3086 35.1771 90.3091 35.1773Z" fill="black"/>
<path d="M50.1367 97.8143C29.5082 97.8143 18.7159 86.2022 18.7159 86.2022C20.591 81.6849 21.8384 79.7086 24.8634 76.6394C27.6707 73.7812 28.7119 71.9919 30.3279 68.7159C30.8576 66.3888 30.8849 64.5777 30.3279 62.9782C28.9454 59.9936 28.6629 58.3179 28.4154 55.3279V50.8197C29.0828 46.2048 29.7757 43.9127 31.9673 40.7104L29.3716 39.2077L30.0547 32.1039L18.3061 27.5957V32.7869L19.6722 38.6613L21.1749 46.0383C21.0409 47.0264 20.5312 46.6993 18.9693 47.3146H15.6906C14.2856 46.8075 13.8517 47.1341 13.6613 46.0383L15.3006 38.6613L16.2569 32.7869V27.3225L14.4809 26.5028V24.8634L51.776 12.5684L81.9673 23.7705V27.5957L70.7651 32.1039L71.3115 39.3443L69.1257 40.4372C70.6685 42.2634 71.3694 43.8987 72.1312 48.6339C72.3352 51.7504 72.239 53.4864 71.5847 56.5574C73.3703 57.2754 74.1093 58.0482 75.1367 59.8361C74.6342 63.5157 73.3522 65.1801 68.0328 66.9399C68.0123 68.1712 67.9194 68.8075 68.1694 70.2186C68.4262 71.1453 68.6282 71.6581 69.2623 72.541C71.3598 75.4281 73.3607 77.0492 75 79.235C76.6394 81.4208 78.1018 83.4927 79.3716 87.705C79.3716 87.705 70.7651 97.8143 50.1367 97.8143Z" fill="black"/>
<path d="M43.4427 67.7595C50.6832 72.9508 57.2407 74.4535 64.2635 70.0819C64.2635 70.0819 63.9345 71.1748 64.6176 74.4535C65.2877 77.6698 69.3602 84.1664 71.3353 92.8014C65.3072 95.8121 58.5541 97.5862 51.4079 97.7928C47.6809 97.8317 43.9292 97.5054 40.3311 96.8357C38.5985 96.4799 36.9002 96.0303 35.2415 95.4926C34.9859 86.8869 40.8242 79.353 41.94 75.8196C43.0617 72.2677 43.4427 67.7595 43.4427 67.7595ZM29.0985 86.612C29.098 86.6142 28.3398 90.5381 28.2788 92.4863V92.6066C28.0534 92.4915 27.8292 92.3744 27.6059 92.2558C27.7858 89.8185 29.0973 86.6148 29.0985 86.612ZM69.9455 82.9235C71.5467 85.4691 72.8583 86.2822 74.3125 91.1799C73.9263 91.4085 73.5364 91.6313 73.1433 91.8491C72.5277 88.2222 71.4503 86.5905 69.9455 82.9235ZM66.6668 70.2185C67.1441 73.4503 69.2624 75.8196 73.3608 80.6011C77.4031 85.3171 76.9419 84.7208 78.1681 88.6398C77.7618 88.9365 77.3502 89.2264 76.9343 89.5104C75.7382 85.6288 74.5595 84.2662 72.1313 80.8743C66.8914 76.1243 66.31 73.9078 66.6668 70.2185ZM40.1641 36.0655L37.8416 37.7049C37.8402 37.7068 36.7908 39.11 36.0657 40.0273C35.0556 41.3049 34.6232 42.13 33.8799 43.5792C33.2692 44.7697 32.9596 45.4597 32.5138 46.7213C32.1256 47.8199 32.0289 48.4741 31.6941 49.5901C31.2843 50.9562 31.5575 53.5519 31.5575 54.918C31.5575 56.2841 32.787 60.5191 33.0602 61.8852C33.3334 63.2513 33.4701 66.3934 33.1968 68.1694C32.9236 69.9453 32.6038 70.6414 31.9673 72.1311C31.1731 73.9899 28.0967 77.2818 25.5466 80.3278C23.4647 83.1424 22.6265 84.8144 21.5245 88.4128C21.1973 88.1698 20.8732 87.9231 20.5525 87.6721C21.8084 84.1358 22.6059 82.6649 24.7269 79.7814C27.4922 77.0511 30.328 73.224 31.011 71.8579C31.6941 70.4918 31.8509 69.6503 32.1039 68.1694C32.414 66.3543 32.0873 62.9926 31.9919 62.1048C31.976 61.9572 31.9433 61.8139 31.8972 61.6728C30.9909 58.9015 30.6012 56.6499 30.6012 54.918C30.6012 53.142 30.4646 50.5464 30.6012 49.5901C30.7378 48.6338 31.4209 46.5847 31.4209 46.5847L32.787 43.5792C32.7874 43.5782 33.9319 40.8938 35.1094 39.4808C35.9067 38.524 36.3336 37.8133 37.2952 37.0218C38.2098 36.269 38.2515 36.2021 39.8908 35.5191C41.5284 34.8367 42.7571 34.836 42.7597 34.836L40.1641 36.0655ZM48.9072 43.7158C56.011 43.7158 57.1039 57.1038 57.1039 57.1038L52.0493 58.4699L45.6285 60.3825C42.449 57.959 41.9784 56.3088 41.5302 53.2786V51.0929C42.7565 45.7546 44.1317 44.4277 47.2679 43.7158H48.9072ZM65.8471 45.3551C68.716 45.3552 69.5356 48.0874 69.6722 50C69.8089 51.9125 69.9952 53.6369 69.1258 56.0109C68.1695 55.601 67.6231 55.601 66.94 55.4644L67.0766 50C66.7377 49.0361 66.1203 48.0874 65.1641 48.0874C64.2078 48.0874 63.3881 49.3169 63.2515 50C63.1149 50.683 63.1149 55.4644 63.1149 55.4644H61.7487C61.6851 53.893 61.6121 51.7759 61.8854 50C62.1586 48.224 62.9783 45.3551 65.8471 45.3551ZM53.2788 33.0601C58.3334 33.0601 62.705 32.7868 69.2624 43.7158C67.0541 41.157 66.0908 40.7097 64.481 40.3005C59.8018 34.7529 58.6461 34.5432 53.2788 33.0601ZM67.8963 26.0929L69.8089 38.2513L66.94 36.7486L64.6176 35.2459L68.3061 36.612L66.1203 26.3661L60.3826 23.224L67.8963 26.0929ZM34.1531 26.5027L32.5138 36.7486L37.8416 34.5628L31.1477 38.1147L32.3772 25.9562L40.0274 23.4972L34.1531 26.5027Z" fill="white"/>
<path d="M20.765 35.929C20.765 37.8152 19.236 39.3443 17.3497 39.3443C15.4635 39.3443 13.9344 37.8152 13.9344 35.929C13.9344 34.0428 15.4635 32.5137 17.3497 32.5137C19.236 32.5137 20.765 34.0428 20.765 35.929Z" fill="black"/>
<path d="M66.3935 50.2732C66.3935 51.0277 66.0265 51.6393 65.5738 51.6393C65.1211 51.6393 64.7542 51.0277 64.7542 50.2732C64.7542 49.5187 65.1211 48.9071 65.5738 48.9071C66.0265 48.9071 66.3935 49.5187 66.3935 50.2732Z" fill="white"/>
<path d="M19.1258 35.9289C19.1258 36.9097 18.3306 37.7049 17.3498 37.7049C16.369 37.7049 15.5739 36.9097 15.5739 35.9289C15.5739 34.9481 16.369 34.153 17.3498 34.153C18.3306 34.153 19.1258 34.9481 19.1258 35.9289Z" fill="white"/>
<path d="M55.4645 57.377L45.6285 60.3825C43.4425 60.9557 42.4058 61.3827 41.8033 62.8415C41.7522 63.1616 41.7428 63.3411 41.8033 63.6612C43.139 66.8211 50.1367 70.6284 53.0055 71.0382C55.8744 71.4481 56.5574 71.3115 57.3771 71.3115C58.1968 71.3115 61.284 70.1484 63.388 68.0328C59.6331 68.7081 58.2035 68.5861 55.7378 68.306C50.44 67.4111 46.9946 64.2076 46.9946 63.9344C46.9946 63.6612 45.9017 65.1639 45.9017 64.7541C45.9017 64.3443 45.9017 64.3443 46.1749 63.6612L46.1749 63.6612C46.4481 62.9781 47.2489 62.4772 48.2241 62.5683C48.016 62.8808 47.9476 63.0578 48.2241 63.388C50.2736 64.5073 51.566 65.0096 54.0984 65.7104C57.4896 66.2777 59.3385 66.3407 62.5684 66.1202C67.4857 65.6138 71.7214 62.2951 72.6776 61.4754C73.6339 60.6557 73.3607 60.5191 73.3607 60.1093C73.3607 59.6994 71.1749 57.9235 70.082 57.377C68.9891 56.8306 67.4794 56.8138 66.3935 56.5574H60.929L55.4645 57.377Z" fill="#FFA300"/>
<path d="M50.8197 52.8688C50.8197 56.1131 49.5964 58.7431 48.0875 58.7431C46.5785 58.7431 45.3552 56.1131 45.3552 52.8688C45.3552 49.6245 46.5785 46.9945 48.0875 46.9945C49.5964 46.9945 50.8197 49.6245 50.8197 52.8688Z" fill="black"/>
<path d="M50 50.2733C50 51.1786 49.5107 51.9126 48.9071 51.9126C48.3035 51.9126 47.8142 51.1786 47.8142 50.2733C47.8142 49.3679 48.3035 48.6339 48.9071 48.6339C49.5107 48.6339 50 49.3679 50 50.2733Z" fill="white"/>
<path d="M72.1313 80.8743C74.6555 84.1758 75.7682 85.5756 76.9375 89.5084C76.7444 89.6403 76.5504 89.7711 76.3553 89.9003C75.0143 86.3018 73.8972 84.6949 71.5848 81.1475C69.0447 78.3203 68.5185 77.3467 67.4864 75.5464L72.1313 80.8743ZM18.0329 39.3443C18.8509 41.7483 19.164 43.177 19.399 45.9016C19.1065 46.1584 18.8726 46.2238 18.3061 46.1749C18.111 44.0812 17.6231 40.847 17.3498 40.9836C17.0766 41.1202 16.6102 43.9242 16.3936 46.1749C15.897 46.26 15.6598 46.2033 15.3007 45.9016C15.5763 42.926 15.8571 41.4607 16.6668 39.3443H18.0329ZM53.2788 33.0601C58.89 34.0659 61.2023 35.929 64.481 40.3005C63.2464 40.3257 62.696 40.725 61.7487 41.53C57.4114 35.8101 57.166 35.1088 53.2788 33.0601ZM66.1203 26.3661L68.3061 36.612L64.6176 35.2459L59.0165 32.2404L63.3881 33.4699L61.4755 25.5464L59.563 23.224H60.3826L66.1203 26.3661ZM80.328 24.8634V25.6831L51.7761 15.0273L18.3061 26.2295V25.4098L51.7761 14.2076L80.328 24.8634Z" fill="#40CDAA"/>
<path d="M86.2022 18.7646C86.5741 19.1953 86.9385 19.6327 87.2951 20.0766V28.8505L88.7365 33.3805L89.8907 36.4108V48.5562C89.8907 48.839 89.8358 49.1191 89.729 49.3809L88.5505 52.2738C88.4438 52.5357 88.3888 52.8158 88.3888 53.0986V78.5081C88.0328 78.9867 87.6683 79.4585 87.2951 79.9231V52.8872C87.2951 52.6045 87.3499 52.3243 87.4565 52.0625L88.6364 49.167C88.7431 48.9051 88.7978 48.625 88.7978 48.3422V36.612L87.705 33.7431L86.7487 30.7377L85.7924 33.7431L84.8361 36.612L84.5722 48.3534C84.566 48.629 84.6121 48.9032 84.7078 49.1616L85.7911 52.0868C85.8822 52.3329 85.9283 52.5935 85.9271 52.856L85.7948 81.7012C85.4289 82.114 85.0555 82.5201 84.6757 82.92L84.8329 53.0497C84.8343 52.7867 84.7882 52.5255 84.6968 52.2789L83.6103 49.3457C83.5146 49.0873 83.4686 48.8131 83.4748 48.5375L83.7472 36.4228L84.7555 33.3976L86.2022 28.8505V18.7646Z" fill="black"/>
<path d="M50 0C77.6142 0 100 22.3858 100 50C100 77.6142 77.6142 100 50 100C22.3858 100 0 77.6142 0 50C0 22.3858 22.3858 0 50 0ZM50 2.18579C23.5929 2.18579 2.18579 23.5929 2.18579 50C2.18579 76.4071 23.5929 97.8142 50 97.8142C76.4071 97.8142 97.8142 76.4071 97.8142 50C97.8142 23.5929 76.4071 2.18579 50 2.18579Z" fill="black"/>
</svg>
